<?xml version="1.0" encoding="UTF-8"?>
<svg version="1.1" xmlns="http://www.w3.org/2000/svg" width="920" height="920">
<path d="M0 0 C303.6 0 607.2 0 920 0 C920 303.6 920 607.2 920 920 C616.4 920 312.8 920 0 920 C0 616.4 0 312.8 0 0 Z " fill="#563D7C" transform="translate(0,0)"/>
<path d="M0 0 C70.3828125 -0.0928125 70.3828125 -0.0928125 142.1875 -0.1875 C156.95910889 -0.21481201 171.73071777 -0.24212402 186.94995117 -0.27026367 C205.10021973 -0.28381348 205.10021973 -0.28381348 213.61885071 -0.28633118 C219.52094686 -0.28910653 225.42295589 -0.30001526 231.32502747 -0.31672668 C238.15866299 -0.33604662 244.99221624 -0.34445659 251.82587918 -0.34033485 C255.30930745 -0.33855486 258.79255273 -0.34104091 262.27594602 -0.35764539 C313.87845711 -0.56705818 368.79551604 6.14387732 407.625 43.25 C413.28950806 49.02763661 417.64054766 55.20816168 422 62 C422.54269531 62.78503906 423.08539062 63.57007813 423.64453125 64.37890625 C437.35257881 85.17607603 440.44868499 111.98161062 440.3125 136.3125 C440.31001251 137.02989349 440.30752502 137.74728699 440.30496216 138.48641968 C440.15183156 167.15763806 433.3977812 195.01091215 414 217 C413.32453125 217.80695313 412.6490625 218.61390625 411.953125 219.4453125 C401.62029749 231.47513723 389.52636937 239.97490622 376 248 C374.93136719 248.64582031 373.86273437 249.29164063 372.76171875 249.95703125 C370.51358813 251.31481311 368.26063318 252.66318326 366 254 C367.22332031 254.38929688 368.44664062 254.77859375 369.70703125 255.1796875 C391.4625172 262.31609665 413.12138816 273.02378827 429 290 C429 290.66 429 291.32 429 292 C429.66 292 430.32 292 431 292 C432.32519531 293.38598633 432.32519531 293.38598633 433.828125 295.33203125 C434.37799072 296.04302979 434.92785645 296.75402832 435.49438477 297.48657227 C436.07373779 298.25412842 436.65309082 299.02168457 437.25 299.8125 C437.839021 300.58843506 438.42804199 301.36437012 439.03491211 302.16381836 C443.28384077 307.8477414 446.91676215 313.59881415 450 320 C450.36222656 320.6909375 450.72445313 321.381875 451.09765625 322.09375 C455.09893057 329.76159129 458.02826904 337.73869342 460.5625 346 C460.76029053 346.62060303 460.95808105 347.24120605 461.16186523 347.88061523 C465.56866007 362.72560781 466.55076811 377.73992367 466.4375 393.125 C466.43412628 394.01908569 466.43075256 394.91317139 466.42727661 395.83435059 C466.19028453 439.33039462 451.8794769 475.31111893 421.578125 506.4921875 C384.92352378 541.05575442 328.84823012 556.25023107 279.5917511 556.12025452 C277.79337296 556.12153854 277.79337296 556.12153854 275.95866394 556.12284851 C272.65560714 556.12420691 269.35261064 556.12110401 266.04956116 556.11607273 C262.42361861 556.11168073 258.79767739 556.113169 255.1717329 556.11389065 C248.14513994 556.11442058 241.11855985 556.10982012 234.09197019 556.10338932 C225.95791866 556.09616888 217.82387477 556.09539345 209.68981934 556.09460449 C188.23071086 556.08936134 166.77160524 556.07540014 145.3125 556.0625 C73.3828125 556.0315625 73.3828125 556.0315625 0 556 C0 372.52 0 189.04 0 0 Z " fill="#FEFEFE" transform="translate(259,182)"/>
<path d="M0 0 C1.15189819 -0.00426498 2.30379639 -0.00852997 3.49060059 -0.01292419 C5.40408798 -0.01224442 5.40408798 -0.01224442 7.35623169 -0.0115509 C8.70484511 -0.01454135 10.05345767 -0.01794361 11.40206909 -0.02172852 C15.08085878 -0.03059862 18.75962524 -0.03290829 22.43842459 -0.0335443 C24.74334677 -0.03425475 27.04826303 -0.03638928 29.35318375 -0.03904152 C37.41507593 -0.04831485 45.47695154 -0.05237518 53.53884888 -0.05158997 C61.01446021 -0.05099321 68.48999842 -0.06146007 75.96559131 -0.07733363 C82.40407516 -0.09050978 88.84253549 -0.09576947 95.28103268 -0.09513456 C99.11635531 -0.09488189 102.95161343 -0.0976012 106.78692245 -0.10831261 C147.99757929 -0.21539481 147.99757929 -0.21539481 163.00515747 4.32121277 C163.73533081 4.53406921 164.46550415 4.74692566 165.21780396 4.9662323 C183.51549615 10.57696629 199.09870276 21.67225345 208.31765747 38.69621277 C214.46026535 51.49661499 215.88096852 65.25532181 215.94265747 79.25871277 C215.97359497 80.97961121 215.97359497 80.97961121 216.00515747 82.73527527 C216.08798478 101.12293902 210.20389923 118.21913525 197.63015747 131.82121277 C179.60396348 148.95684521 152.85161117 153.31117043 129.0149231 153.24723816 C127.53592938 153.24695572 126.05693553 153.24711513 124.57794189 153.24768066 C120.58266286 153.24796643 116.58741413 153.24210548 112.59214211 153.23510671 C108.40946228 153.22883632 104.2267817 153.22826646 100.0440979 153.2270813 C92.13243056 153.22397883 84.22077712 153.21578009 76.30911589 153.20573181 C67.29822101 153.19453696 58.28732546 153.18905173 49.27642536 153.18403637 C30.74849487 153.17359654 12.22057729 153.15601815 -6.30734253 153.13371277 C-6.33067001 133.33264716 -6.34832096 113.53158433 -6.3591547 93.73050785 C-6.36431798 84.53718673 -6.37136128 75.34387413 -6.38278198 66.15055847 C-6.39272785 58.14064241 -6.39919572 50.13073252 -6.40143102 42.12081045 C-6.4027383 37.87694023 -6.40582519 33.63308767 -6.41307259 29.3892231 C-6.41983127 25.39942207 -6.4219598 21.40964607 -6.42045021 17.41983986 C-6.42072661 15.95121881 -6.42273263 14.48259698 -6.426548 13.01398087 C-6.43148281 11.01748501 -6.42974065 9.0209759 -6.42759705 7.0244751 C-6.42851884 5.90449662 -6.42944063 4.78451815 -6.43039036 3.63060093 C-6.20705621 -0.90129862 -4.01069309 0.00667584 0 0 Z " fill="#563E7C" transform="translate(387.3073425292969,489.8662872314453)"/>
<path d="M0 0 C32.83801666 -0.1209091 32.83801666 -0.1209091 46.70507812 -0.14648438 C56.24199316 -0.16421583 65.77882811 -0.1849453 75.31567383 -0.22631836 C82.26441745 -0.25644897 89.21309546 -0.27562842 96.16190261 -0.28226548 C99.83297625 -0.2861382 103.5038624 -0.29508046 107.17487526 -0.31719017 C134.56415086 -0.47562907 162.65620311 -0.27604476 183.77734375 19.70703125 C197.00314997 33.35122853 200.17796834 49.51401191 200 68 C199.35372269 85.40691819 193.96772166 100.63692438 181.25 112.75 C165.18001241 126.49311156 143.34232989 130.52182846 122.72094727 130.34057617 C121.3689984 130.33972678 120.01704817 130.34021111 118.6651001 130.34190369 C115.04820902 130.34275291 111.43162575 130.32530457 107.81480527 130.30418181 C104.01522016 130.28523278 100.21562544 130.2836504 96.41600037 130.28010559 C89.2446996 130.27083801 82.07353854 130.2462971 74.90229887 130.21605712 C65.19498405 130.17602485 55.48763014 130.16001544 45.78025341 130.14255047 C30.52006461 130.11447114 15.2601704 130.05466692 0 130 C0 87.1 0 44.2 0 0 Z " fill="#563D7C" transform="translate(381,277)"/>
<path d="M0 0 C36.63 0 73.26 0 111 0 C111 36.3 111 72.6 111 110 C110.67 110 110.34 110 110 110 C109.94054199 109.45287354 109.88108398 108.90574707 109.81982422 108.34204102 C106.2503414 76.86419848 92.91520987 48.99831266 68.62109375 28.0859375 C60.00682448 21.23046836 51.08890825 15.48104756 41 11 C39.51113281 10.33871094 39.51113281 10.33871094 37.9921875 9.6640625 C25.96731306 4.69137006 12.97880144 1.83734203 0 1 C0 0.67 0 0.34 0 0 Z " fill="#EFEEF0" transform="translate(809,0)"/>
<path d="M0 0 C0.33 0 0.66 0 1 0 C1.09796875 0.98097656 1.1959375 1.96195313 1.296875 2.97265625 C3.97573221 27.87264955 12.3577603 50.09876213 29 69 C29.70898438 69.84175781 30.41796875 70.68351563 31.1484375 71.55078125 C39.38451062 81.10997803 48.85552665 89.04543468 60 95 C61.58748047 95.86238281 61.58748047 95.86238281 63.20703125 96.7421875 C78.71005249 104.85038941 93.71929761 108.09834123 111 110 C111 110.33 111 110.66 111 111 C74.37 111 37.74 111 0 111 C0 74.37 0 37.74 0 0 Z " fill="#E6E5E7" transform="translate(0,809)"/>
<path d="M0 0 C0.33 0 0.66 0 1 0 C1 36.3 1 72.6 1 110 C-34.97 110 -70.94 110 -108 110 C-108 109.67 -108 109.34 -108 109 C-106.83984375 108.81824219 -105.6796875 108.63648438 -104.484375 108.44921875 C-77.09743107 104.08165074 -51.00426916 94.60591041 -32.4375 72.9375 C-30.05255451 70.17844541 -27.5789557 67.5789557 -25 65 C-24.505 64.01 -24.505 64.01 -24 63 C-23.34 63 -22.68 63 -22 63 C-21.72929688 62.26394531 -21.45859375 61.52789063 -21.1796875 60.76953125 C-20.05142429 58.12072788 -18.77971167 56.03238933 -17.125 53.6875 C-6.30153708 37.70127148 -2.19480424 18.90113766 0 0 Z " fill="#F0EEF3" transform="translate(919,810)"/>
<path d="M0 0 C36.3 0 72.6 0 110 0 C110 0.33 110 0.66 110 1 C108.61554688 1.11214844 108.61554688 1.11214844 107.203125 1.2265625 C75.14799798 4.45741522 46.38743805 19.80146289 25.8203125 44.73828125 C11.66724234 62.83337805 2.47211154 86.05536495 1 109 C0.67 109 0.34 109 0 109 C0 73.03 0 37.06 0 0 Z " fill="#FEFEFE" transform="translate(0,0)"/>
<path d="M0 0 C14.85 0 29.7 0 45 0 C45 4.95 45 9.9 45 15 C40.05 15 35.1 15 30 15 C30 19.95 30 24.9 30 30 C25.05 30 20.1 30 15 30 C15 34.95 15 39.9 15 45 C10.05 45 5.1 45 0 45 C0 30.15 0 15.3 0 0 Z " fill="#E5E4E6" transform="translate(0,0)"/>
<path d="M0 0 C2.64 0.33 5.28 0.66 8 1 C8 5.95 8 10.9 8 16 C3.05 16 -1.9 16 -7 16 C-7 20.95 -7 25.9 -7 31 C-2.05 31 2.9 31 8 31 C8 35.95 8 40.9 8 46 C3.05 46 -1.9 46 -7 46 C-7 50.95 -7 55.9 -7 61 C-11.95 61 -16.9 61 -22 61 C-22 56.05 -22 51.1 -22 46 C-26.95 46 -31.9 46 -37 46 C-37 50.95 -37 55.9 -37 61 C-41.95 61 -46.9 61 -52 61 C-52.33 58.36 -52.66 55.72 -53 53 C-52.14921875 52.59007812 -51.2984375 52.18015625 -50.421875 51.7578125 C-38.07644435 45.41598168 -27.0641237 37.29147008 -18.24609375 26.5 C-16.61972647 24.54224127 -14.7984124 22.7984124 -13 21 C-12.67 20.34 -12.34 19.68 -12 19 C-11.34 19 -10.68 19 -10 19 C-9.731875 18.2678125 -9.46375 17.535625 -9.1875 16.78125 C-7.68729891 13.26762114 -5.62897802 10.39314879 -3.4375 7.28125 C-1.95361396 4.92638737 -0.95529823 2.608699 0 0 Z " fill="#E5E4E6" transform="translate(907,854)"/>
<path d="M0 0 C6.6 0 13.2 0 20 0 C20 36.3 20 72.6 20 110 C19.67 110 19.34 110 19 110 C18.94054199 109.45287354 18.88108398 108.90574707 18.81982422 108.34204102 C16.92552783 91.6369982 13.19586298 77.06172838 5.00390625 62.3203125 C4 60 4 60 5 57 C5.33 57.66 5.66 58.32 6 59 C8.12576782 59.46651207 8.12576782 59.46651207 10.5625 59.625 C12.7590625 59.810625 12.7590625 59.810625 15 60 C15 55.05 15 50.1 15 45 C10.05 45 5.1 45 0 45 C0 40.05 0 35.1 0 30 C4.95 30 9.9 30 15 30 C15 25.05 15 20.1 15 15 C10.05 15 5.1 15 0 15 C0 10.05 0 5.1 0 0 Z " fill="#FFFFFF" transform="translate(900,0)"/>
<path d="M0 0 C4.95 0 9.9 0 15 0 C15 4.95 15 9.9 15 15 C19.95 15 24.9 15 30 15 C30 10.05 30 5.1 30 0 C34.95 0 39.9 0 45 0 C45 4.95 45 9.9 45 15 C49.95 15 54.9 15 60 15 C60 16.65 60 18.3 60 20 C40.2 20 20.4 20 0 20 C0 13.4 0 6.8 0 0 Z " fill="#FFFFFF" transform="translate(0,900)"/>
<path d="M0 0 C4.95 0 9.9 0 15 0 C16.00998961 4.60807759 16.35462119 6.56209923 15 11 C10.98627855 16.14079109 5.8084043 20.29340184 0.80957031 24.44189453 C-1.1460186 26.05965655 -1.1460186 26.05965655 -3.1875 28.42578125 C-5.61424679 30.53349452 -7.0892043 30.41635767 -10.25 30.25 C-11.8175 30.1675 -13.385 30.085 -15 30 C-15 25.05 -15 20.1 -15 15 C-10.05 15 -5.1 15 0 15 C0 10.05 0 5.1 0 0 Z " fill="#E5E4E6" transform="translate(30,15)"/>
<path d="M0 0 C4.95 0 9.9 0 15 0 C15 4.95 15 9.9 15 15 C19.95 15 24.9 15 30 15 C30 19.95 30 24.9 30 30 C28.576875 30.020625 27.15375 30.04125 25.6875 30.0625 C24.48673828 30.07990234 24.48673828 30.07990234 23.26171875 30.09765625 C21 30 21 30 18 29 C16.67578125 27.03125 16.67578125 27.03125 15.3125 24.5 C12.57571425 19.69511418 9.37832418 15.87164161 5.5390625 11.91015625 C4 10 4 10 4 7 C3.34 6.34 2.68 5.68 2 5 C1.34 4.34 0.68 3.68 0 3 C0 2.01 0 1.02 0 0 Z " fill="#E4E3E5" transform="translate(885,30)"/>
<path d="M0 0 C0.66 0.66 1.32 1.32 2 2 C8.93 2.495 8.93 2.495 16 3 C16 19.5 16 36 16 53 C15.67 53 15.34 53 15 53 C14.94054199 52.45287354 14.88108398 51.90574707 14.81982422 51.34204102 C12.92658767 34.64634452 9.13976614 20.11885151 1.1015625 5.3203125 C0 3 0 3 0 0 Z " fill="#F9F8F9" transform="translate(904,57)"/>
<path d="M0 0 C0.33 0 0.66 0 1 0 C1.09796875 0.98097656 1.1959375 1.96195313 1.296875 2.97265625 C2.74755206 16.45670797 5.90912708 28.90698891 11.046875 41.48828125 C12 44 12 44 12 46 C8.04 46 4.08 46 0 46 C0 30.82 0 15.64 0 0 Z " fill="#FDFDFD" transform="translate(0,809)"/>
<path d="M0 0 C4.95 0 9.9 0 15 0 C15 4.95 15 9.9 15 15 C10.05 15 5.1 15 0 15 C0 10.05 0 5.1 0 0 Z " fill="#FFFFFF" transform="translate(900,900)"/>
<path d="M0 0 C4.95 0 9.9 0 15 0 C15 4.95 15 9.9 15 15 C10.05 15 5.1 15 0 15 C0 10.05 0 5.1 0 0 Z " fill="#FFFFFF" transform="translate(870,900)"/>
<path d="M0 0 C4.95 0 9.9 0 15 0 C15 4.95 15 9.9 15 15 C10.05 15 5.1 15 0 15 C0 10.05 0 5.1 0 0 Z " fill="#FFFFFF" transform="translate(30,900)"/>
<path d="M0 0 C4.95 0 9.9 0 15 0 C15 4.95 15 9.9 15 15 C10.05 15 5.1 15 0 15 C0 10.05 0 5.1 0 0 Z " fill="#E5E4E6" transform="translate(15,900)"/>
<path d="M0 0 C4.95 0 9.9 0 15 0 C15 4.95 15 9.9 15 15 C10.05 15 5.1 15 0 15 C0 10.05 0 5.1 0 0 Z " fill="#E5E4E6" transform="translate(900,885)"/>
<path d="M0 0 C4.95 0 9.9 0 15 0 C15 4.95 15 9.9 15 15 C10.05 15 5.1 15 0 15 C0 10.05 0 5.1 0 0 Z " fill="#FFFFFF" transform="translate(15,885)"/>
<path d="M0 0 C4.95 0 9.9 0 15 0 C15 4.95 15 9.9 15 15 C10.05 15 5.1 15 0 15 C0 10.05 0 5.1 0 0 Z " fill="#E5E4E6" transform="translate(0,885)"/>
<path d="M0 0 C4.95 0 9.9 0 15 0 C15 4.95 15 9.9 15 15 C10.05 15 5.1 15 0 15 C0 10.05 0 5.1 0 0 Z " fill="#FFFFFF" transform="translate(900,870)"/>
<path d="M0 0 C4.95 0 9.9 0 15 0 C15 4.95 15 9.9 15 15 C10.05 15 5.1 15 0 15 C0 10.05 0 5.1 0 0 Z " fill="#FFFFFF" transform="translate(0,870)"/>
<path d="M0 0 C4.95 0 9.9 0 15 0 C15 4.95 15 9.9 15 15 C10.05 15 5.1 15 0 15 C0 10.05 0 5.1 0 0 Z " fill="#FFFFFF" transform="translate(900,30)"/>
<path d="M0 0 C4.95 0 9.9 0 15 0 C15 4.95 15 9.9 15 15 C10.05 15 5.1 15 0 15 C0 10.05 0 5.1 0 0 Z " fill="#FFFFFF" transform="translate(0,30)"/>
<path d="M0 0 C4.95 0 9.9 0 15 0 C15 4.95 15 9.9 15 15 C10.05 15 5.1 15 0 15 C0 10.05 0 5.1 0 0 Z " fill="#E5E4E6" transform="translate(900,15)"/>
<path d="M0 0 C4.95 0 9.9 0 15 0 C15 4.95 15 9.9 15 15 C10.05 15 5.1 15 0 15 C0 10.05 0 5.1 0 0 Z " fill="#FFFFFF" transform="translate(885,15)"/>
<path d="M0 0 C4.95 0 9.9 0 15 0 C15 4.95 15 9.9 15 15 C10.05 15 5.1 15 0 15 C0 10.05 0 5.1 0 0 Z " fill="#FFFFFF" transform="translate(15,15)"/>
<path d="M0 0 C4.95 0 9.9 0 15 0 C15 4.95 15 9.9 15 15 C10.05 15 5.1 15 0 15 C0 10.05 0 5.1 0 0 Z " fill="#E5E4E6" transform="translate(0,15)"/>
<path d="M0 0 C4.95 0 9.9 0 15 0 C15 4.95 15 9.9 15 15 C10.05 15 5.1 15 0 15 C0 10.05 0 5.1 0 0 Z " fill="#E5E4E6" transform="translate(885,0)"/>
<path d="M0 0 C4.95 0 9.9 0 15 0 C15 4.95 15 9.9 15 15 C10.05 15 5.1 15 0 15 C0 10.05 0 5.1 0 0 Z " fill="#FFFFFF" transform="translate(870,0)"/>
<path d="M0 0 C4.95 0 9.9 0 15 0 C15 4.95 15 9.9 15 15 C10.05 15 5.1 15 0 15 C0 10.05 0 5.1 0 0 Z " fill="#FFFFFF" transform="translate(30,0)"/>
<path d="M0 0 C4.95 0 9.9 0 15 0 C15 4.95 15 9.9 15 15 C10.05 15 5.1 15 0 15 C0 10.05 0 5.1 0 0 Z " fill="#FFFFFF" transform="translate(0,0)"/>
<path d="M0 0 C4.95 0 9.9 0 15 0 C15.09765625 10.83984375 15.09765625 10.83984375 15 14 C14 15 14 15 10.83984375 15.09765625 C7.2265625 15.06510417 3.61328125 15.03255208 0 15 C0 10.05 0 5.1 0 0 Z " fill="#E5E4E6" transform="translate(0,45)"/>
<path d="M0 0 C4.95 0 9.9 0 15 0 C15.09765625 10.83984375 15.09765625 10.83984375 15 14 C14 15 14 15 10.83984375 15.09765625 C7.2265625 15.06510417 3.61328125 15.03255208 0 15 C0 10.05 0 5.1 0 0 Z " fill="#E5E4E6" transform="translate(45,0)"/>
<path d="M0 0 C4.98046875 0.09765625 4.98046875 0.09765625 9.9609375 0.1953125 C9.9609375 5.1453125 9.9609375 10.0953125 9.9609375 15.1953125 C5.0109375 15.1953125 0.0609375 15.1953125 -5.0390625 15.1953125 C-5.234375 5.234375 -5.234375 5.234375 -5.0390625 2.1953125 C-3.0390625 0.1953125 -3.0390625 0.1953125 0 0 Z " fill="#FFFFFF" transform="translate(890.0390625,884.8046875)"/>
<path d="M0 0 C4.95 0 9.9 0 15 0 C15 4.95 15 9.9 15 15 C13.1025 15.061875 11.205 15.12375 9.25 15.1875 C8.18265625 15.22230469 7.1153125 15.25710938 6.015625 15.29296875 C2.6061504 14.96173741 1.22278352 14.61503944 -1 12 C-1.24178241 7.89519407 -0.52899801 4.09973455 0 0 Z " fill="#E4E3E5" transform="translate(855,0)"/>
<path d="M0 0 C4.95 0 9.9 0 15 0 C15.7230444 10.00211416 15.7230444 10.00211416 13.6640625 12.84375 C12 14.1875 12 14.1875 9 16 C8.67 15.67 8.34 15.34 8 15 C5.32941149 14.85884839 2.67567762 14.95752893 0 15 C0 10.05 0 5.1 0 0 Z " fill="#E4E3E5" transform="translate(30,15)"/>
<path d="M0 0 C1.65 0 3.3 0 5 0 C5 6.6 5 13.2 5 20 C-1.6 20 -8.2 20 -15 20 C-15 18.35 -15 16.7 -15 15 C-10.05 15 -5.1 15 0 15 C0 10.05 0 5.1 0 0 Z " fill="#E5E4E6" transform="translate(915,900)"/>
<path d="M0 0 C2.64 0 5.28 0 8 0 C7.29174897 3.96781543 6.25207704 7.80856917 5.18432617 11.69018555 C3.14172571 19.14425623 1.38143178 26.2442205 1 34 C0.67 34 0.34 34 0 34 C0 22.78 0 11.56 0 0 Z " fill="#E2E0E4" transform="translate(0,75)"/>
<path d="M0 0 C11.55 0 23.1 0 35 0 C35 0.33 35 0.66 35 1 C33.51113281 1.14695313 33.51113281 1.14695313 31.9921875 1.296875 C23.64913001 2.19162271 15.99753538 3.61653972 7.98828125 6.1953125 C5.16221941 6.95631739 2.90612213 7.16175077 0 7 C0 4.69 0 2.38 0 0 Z " fill="#E3E1E5" transform="translate(75,0)"/>
<path d="M0 0 C3.54070083 1.38298622 6.99141531 2.89671521 10.4375 4.5 C14.23844663 6.24124447 17.9847043 7.80626344 22 9 C21.67 9.66 21.34 10.32 21 11 C14.73 11 8.46 11 2 11 C1.67 8.03 1.34 5.06 1 2 C0.67 1.34 0.34 0.68 0 0 Z " fill="#FAF9FA" transform="translate(58,904)"/>
<path d="M0 0 C0.66 0.66 1.32 1.32 2 2 C4.20250992 2.46006346 4.20250992 2.46006346 6.625 2.625 C8.06875 2.74875 9.5125 2.8725 11 3 C11 7.95 11 12.9 11 18 C7 17 7 17 5.078125 13.9453125 C4.4542249 12.67892803 3.845321 11.40506791 3.25 10.125 C2.93417969 9.48691406 2.61835937 8.84882812 2.29296875 8.19140625 C0.8919811 5.28632797 0 3.26257196 0 0 Z " fill="#FEFEFE" transform="translate(904,57)"/>
<path d="M0 0 C0.33 0 0.66 0 1 0 C1.10957031 0.99257813 1.21914063 1.98515625 1.33203125 3.0078125 C2.28582486 11.28461007 3.58152235 19.28820059 5.51171875 27.40234375 C5.67285156 28.25957031 5.83398438 29.11679687 6 30 C5.67 30.33 5.34 30.66 5 31 C3.35 31 1.7 31 0 31 C0 20.77 0 10.54 0 0 Z " fill="#E1DEE5" transform="translate(0,809)"/>
<path d="M0 0 C10.23 0 20.46 0 31 0 C31 1.65 31 3.3 31 5 C26.84976017 6.38341328 23.55508976 5.13704217 19.4375 4.125 C12.94326703 2.59587619 6.67492661 1.43064043 0 1 C0 0.67 0 0.34 0 0 Z " fill="#E2E0E6" transform="translate(809,0)"/>
<path d="M0 0 C4.95 0 9.9 0 15 0 C15 1.65 15 3.3 15 5 C10.05 5 5.1 5 0 5 C0 3.35 0 1.7 0 0 Z " fill="#E5E4E6" transform="translate(900,915)"/>
<path d="M0 0 C4.95 0 9.9 0 15 0 C15 1.65 15 3.3 15 5 C10.05 5 5.1 5 0 5 C0 3.35 0 1.7 0 0 Z " fill="#FFFFFF" transform="translate(885,915)"/>
<path d="M0 0 C4.95 0 9.9 0 15 0 C15 1.65 15 3.3 15 5 C10.05 5 5.1 5 0 5 C0 3.35 0 1.7 0 0 Z " fill="#E5E4E6" transform="translate(870,915)"/>
<path d="M0 0 C4.95 0 9.9 0 15 0 C15 1.65 15 3.3 15 5 C10.05 5 5.1 5 0 5 C0 3.35 0 1.7 0 0 Z " fill="#FFFFFF" transform="translate(855,915)"/>
<path d="M0 0 C4.95 0 9.9 0 15 0 C15 1.65 15 3.3 15 5 C10.05 5 5.1 5 0 5 C0 3.35 0 1.7 0 0 Z " fill="#E5E4E6" transform="translate(840,915)"/>
<path d="M0 0 C4.95 0 9.9 0 15 0 C15 1.65 15 3.3 15 5 C10.05 5 5.1 5 0 5 C0 3.35 0 1.7 0 0 Z " fill="#E5E4E6" transform="translate(60,915)"/>
<path d="M0 0 C4.95 0 9.9 0 15 0 C15 1.65 15 3.3 15 5 C10.05 5 5.1 5 0 5 C0 3.35 0 1.7 0 0 Z " fill="#FFFFFF" transform="translate(45,915)"/>
<path d="M0 0 C4.95 0 9.9 0 15 0 C15 1.65 15 3.3 15 5 C10.05 5 5.1 5 0 5 C0 3.35 0 1.7 0 0 Z " fill="#E5E4E6" transform="translate(30,915)"/>
<path d="M0 0 C4.95 0 9.9 0 15 0 C15 1.65 15 3.3 15 5 C10.05 5 5.1 5 0 5 C0 3.35 0 1.7 0 0 Z " fill="#FFFFFF" transform="translate(15,915)"/>
<path d="M0 0 C4.95 0 9.9 0 15 0 C15 1.65 15 3.3 15 5 C10.05 5 5.1 5 0 5 C0 3.35 0 1.7 0 0 Z " fill="#E5E4E6" transform="translate(0,915)"/>
<path d="M0 0 C1.65 0 3.3 0 5 0 C5 4.95 5 9.9 5 15 C3.35 15 1.7 15 0 15 C0 10.05 0 5.1 0 0 Z " fill="#FFFFFF" transform="translate(915,885)"/>
<path d="M0 0 C1.65 0 3.3 0 5 0 C5 4.95 5 9.9 5 15 C3.35 15 1.7 15 0 15 C0 10.05 0 5.1 0 0 Z " fill="#E5E4E6" transform="translate(915,870)"/>
<path d="M0 0 C1.65 0 3.3 0 5 0 C5 4.95 5 9.9 5 15 C3.35 15 1.7 15 0 15 C0 10.05 0 5.1 0 0 Z " fill="#FFFFFF" transform="translate(915,855)"/>
<path d="M0 0 C1.65 0 3.3 0 5 0 C5 4.95 5 9.9 5 15 C3.35 15 1.7 15 0 15 C0 10.05 0 5.1 0 0 Z " fill="#E5E4E6" transform="translate(915,840)"/>
<path d="M0 0 C1.65 0 3.3 0 5 0 C5 4.95 5 9.9 5 15 C3.35 15 1.7 15 0 15 C0 10.05 0 5.1 0 0 Z " fill="#E5E4E6" transform="translate(915,60)"/>
<path d="M0 0 C1.65 0 3.3 0 5 0 C5 4.95 5 9.9 5 15 C3.35 15 1.7 15 0 15 C0 10.05 0 5.1 0 0 Z " fill="#FFFFFF" transform="translate(915,45)"/>
<path d="M0 0 C1.65 0 3.3 0 5 0 C5 4.95 5 9.9 5 15 C3.35 15 1.7 15 0 15 C0 10.05 0 5.1 0 0 Z " fill="#E5E4E6" transform="translate(915,30)"/>
<path d="M0 0 C1.65 0 3.3 0 5 0 C5 4.95 5 9.9 5 15 C3.35 15 1.7 15 0 15 C0 10.05 0 5.1 0 0 Z " fill="#FFFFFF" transform="translate(915,15)"/>
<path d="M0 0 C1.65 0 3.3 0 5 0 C5 4.95 5 9.9 5 15 C3.35 15 1.7 15 0 15 C0 10.05 0 5.1 0 0 Z " fill="#E5E4E6" transform="translate(915,0)"/>
<path d="M0 0 C0.33 0 0.66 0 1 0 C1 4.95 1 9.9 1 15 C-1.31 15 -3.62 15 -6 15 C-3.02112676 4.11971831 -3.02112676 4.11971831 0 0 Z " fill="#F9F9FA" transform="translate(914,840)"/>
<path d="M0 0 C0 2.31 0 4.62 0 7 C-4.62 7 -9.24 7 -14 7 C-13.67 6.01 -13.34 5.02 -13 4 C-10.56640625 2.83203125 -10.56640625 2.83203125 -7.5625 1.8125 C-6.57378906 1.46832031 -5.58507812 1.12414062 -4.56640625 0.76953125 C-2 0 -2 0 0 0 Z " fill="#FCFCFD" transform="translate(855,908)"/>
<path d="M0 0 C0 3 0 3 -1.75 5.04296875 C-2.4925 5.75066406 -3.235 6.45835938 -4 7.1875 C-4.7425 7.90292969 -5.485 8.61835937 -6.25 9.35546875 C-6.8275 9.89816406 -7.405 10.44085938 -8 11 C-9.6415049 7.7169902 -8.51888624 4.57454967 -8 1 C-5.36 0.67 -2.72 0.34 0 0 Z " fill="#FFFFFF" transform="translate(38,29)"/>
<path d="M0 0 C6.6 0 13.2 0 20 0 C20 0.33 20 0.66 20 1 C17.45887768 1.33801152 14.91723254 1.67053379 12.375 2 C11.66214844 2.09539062 10.94929688 2.19078125 10.21484375 2.2890625 C6.11178391 2.81606101 2.14754258 3.10466984 -2 3 C-1.34 2.67 -0.68 2.34 0 2 C0 1.34 0 0.68 0 0 Z " fill="#EEECF1" transform="translate(90,0)"/>
<path d="M0 0 C2.85449645 2.85449645 4.88798596 5.5770807 7 9 C7 9.66 7 10.32 7 11 C5.02 11 3.04 11 1 11 C0.67 7.37 0.34 3.74 0 0 Z " fill="#FCFCFC" transform="translate(14,859)"/>
<path d="M0 0 C3.63 0.33 7.26 0.66 11 1 C11 2.98 11 4.96 11 7 C6.89188572 5.55007731 3.53144334 3.54592427 0 1 C0 0.67 0 0.34 0 0 Z " fill="#FCFCFC" transform="translate(859,14)"/>
<path d="M0 0 C1.27617188 0.14018555 1.27617188 0.14018555 2.578125 0.28320312 C3.46757813 0.38697266 4.35703125 0.49074219 5.2734375 0.59765625 C6.170625 0.69755859 7.0678125 0.79746094 7.9921875 0.90039062 C10.21159599 1.14830328 12.43022727 1.40177619 14.6484375 1.66015625 C14.6484375 1.99015625 14.6484375 2.32015625 14.6484375 2.66015625 C7.7184375 2.66015625 0.7884375 2.66015625 -6.3515625 2.66015625 C-6.3515625 2.00015625 -6.3515625 1.34015625 -6.3515625 0.66015625 C-3.89212003 -0.56956498 -2.71267194 -0.30743615 0 0 Z " fill="#D9D5DF" transform="translate(96.3515625,917.33984375)"/>
<path d="M0 0 C0.66 0 1.32 0 2 0 C2 6.6 2 13.2 2 20 C1.67 20 1.34 20 1 20 C0.63851448 17.04239121 0.28550884 14.08419774 -0.0625 11.125 C-0.16626953 10.28324219 -0.27003906 9.44148438 -0.37695312 8.57421875 C-0.47041016 7.76855469 -0.56386719 6.96289062 -0.66015625 6.1328125 C-0.74918213 5.38918457 -0.83820801 4.64555664 -0.92993164 3.87939453 C-1 2 -1 2 0 0 Z " fill="#DBD7E0" transform="translate(918,90)"/>
<path d="M0 0 C-0.66666667 6.66666667 -1.33333333 13.33333333 -2 20 C-2.33 20 -2.66 20 -3 20 C-3 13.73 -3 7.46 -3 1 C-1 0 -1 0 0 0 Z " fill="#F4F2F5" transform="translate(3,89)"/>
<path d="M0 0 C1.65 0 3.3 0 5 0 C5 1.65 5 3.3 5 5 C3.35 5 1.7 5 0 5 C0 3.35 0 1.7 0 0 Z " fill="#FFFFFF" transform="translate(915,915)"/>
<path d="M0 0 C3.45925163 1.2491742 6.14693203 2.67527795 9 5 C8.67 5.66 8.34 6.32 8 7 C5.69 6.34 3.38 5.68 1 5 C0.67 3.35 0.34 1.7 0 0 Z " fill="#FBFBFB" transform="translate(44,895)"/>
<path d="M0 0 C1.8125 0.1875 1.8125 0.1875 4 1 C5.5625 3.3125 5.5625 3.3125 7 6 C7.98244845 7.34631825 8.97676564 8.68441297 10 10 C5.86360664 8.40907948 2.76786752 5.39525082 0 2 C0 1.34 0 0.68 0 0 Z " fill="#F9F8F9" transform="translate(881,29)"/>
<path d="M0 0 C1.65 0 3.3 0 5 0 C5.33 2.31 5.66 4.62 6 7 C5.34 7 4.68 7 4 7 C2.02 3.535 2.02 3.535 0 0 Z " fill="#FBFBFB" transform="translate(895,45)"/>
<path d="M0 0 C3.36591866 1.44253657 5.51047079 3.33264727 8 6 C7.67 6.66 7.34 7.32 7 8 C3.83282717 6.41641358 2.26731682 5.54736301 0.6875 2.3125 C0.460625 1.549375 0.23375 0.78625 0 0 Z " fill="#FAFAFA" transform="translate(28,880)"/>
</svg>
